<?xml version="1.0" encoding="utf-8"?>
<!-- Generator: Adobe Illustrator 19.0.0, SVG Export Plug-In . SVG Version: 6.00 Build 0)  -->
<svg version="1.1" id="Camada_1" xmlns="http://www.w3.org/2000/svg" xmlns:xlink="http://www.w3.org/1999/xlink" x="0px" y="0px"
	 viewBox="0 0 624.3 230" style="enable-background:new 0 0 624.3 230;" xml:space="preserve">
<style type="text/css">
	.st0{fill:#003078;}
	.st1{fill:#FAEC27;}
	.st2{fill:#FFFFFF;}
</style>
<g id="XMLID_1_">
	<path id="XMLID_43_" class="st0" d="M593.6,230h-563C13.7,230,0,216.3,0,199.3V30.7C0,13.7,13.7,0,30.7,0h563
		c16.9,0,30.7,13.7,30.7,30.7v168.7C624.3,216.3,610.6,230,593.6,230z"/>
	<g id="XMLID_2_">
		<path id="XMLID_191_" class="st1" d="M219.4,84.9h-6.3h0c-6.9,0-12.2,2-15.9,5.9c-3.7,3.9-5.5,9.9-5.5,17.9
			c0,7.9,1.9,13.8,5.5,17.7c3.7,3.9,9,5.9,15.9,5.9h6.3c6.9,0,12.3-2,15.9-5.9c3.7-3.9,5.5-9.9,5.5-17.7c0-7.9-1.9-13.9-5.5-17.9
			C231.7,86.9,226.3,84.9,219.4,84.9 M231.4,108.6c0,5.1-1,8.7-2.9,10.9c-1.9,2.2-4.9,3.3-9.1,3.3h-6.3c-4.3,0-7.4-1.1-9.2-3.2
			c-1.9-2.2-2.8-5.8-2.8-10.9c0-5.1,1-8.8,2.9-11c1.9-2.2,5-3.3,9.2-3.3h6.3c4.2,0,7.3,1.1,9.1,3.3
			C230.4,99.9,231.4,103.6,231.4,108.6"/>
		<path id="XMLID_9_" class="st1" d="M283.9,111.6c1.3-1,2.3-2.2,3.2-3.5c0.8-1.3,1.4-2.7,1.8-4.2c0.4-1.5,0.6-3,0.6-4.5
			c0-1.9-0.3-3.7-0.9-5.5c-0.6-1.8-1.5-3.3-2.8-4.7c-1.3-1.3-2.9-2.4-4.8-3.2c-1.9-0.8-4.3-1.2-6.9-1.2h-25.6v9.5h25.9
			c2,0,3.5,0.5,4.3,1.6c0.9,1.1,1.4,2.3,1.4,3.8c0,0.7-0.1,1.5-0.3,2.2c-0.2,0.7-0.5,1.3-1,1.8c-0.4,0.5-1,0.9-1.7,1.2
			c-0.7,0.3-1.6,0.5-2.6,0.5h-17.9c-2.7,0-4.8,0.6-6,1.9c-1.3,1.3-1.9,3.3-1.9,6.1v18.9h9.5V115c0-0.4,0.1-0.4,0.5-0.4h11.6
			l10.5,17.8l10.6,0l-10.9-18.7C281.6,113.1,282.9,112.4,283.9,111.6"/>
		<path id="XMLID_8_" class="st1" d="M334.3,108.4c-1.2-1.4-2.9-2.5-5-3.3c-2.1-0.8-4.7-1.2-8-1.2l-10.8,0c-1.3,0-2.3-0.1-3.1-0.4
			c-0.7-0.3-1.4-0.6-1.8-1.1c-0.4-0.4-0.7-0.9-0.9-1.5c-0.2-0.6-0.3-1.2-0.3-1.8c0-1.4,0.4-2.5,1.2-3.4c0.8-0.9,2.2-1.3,4-1.3
			l24.3,0v-9.5l-24,0c-2.6,0-4.9,0.3-6.8,1c-1.9,0.7-3.5,1.7-4.7,2.9c-1.2,1.3-2.1,2.8-2.7,4.5c-0.5,1.7-0.8,3.5-0.8,5.5
			c0,1.7,0.2,3.3,0.7,5c0.5,1.7,1.3,3.2,2.5,4.6c1.2,1.4,2.8,2.5,4.9,3.3c2,0.8,4.7,1.2,7.8,1.2l10.7,0c1.3,0,2.4,0.2,3.3,0.4
			c0.8,0.3,1.5,0.7,1.9,1.1c0.5,0.4,0.8,1,1,1.5c0.2,0.6,0.3,1.3,0.3,1.9c0,1.5-0.4,2.7-1.3,3.6c-0.9,0.9-2.3,1.4-4.3,1.4l-26.6,0
			v9.5l26.3,0c2.7,0,5.1-0.4,7-1.1c1.9-0.7,3.5-1.7,4.8-3c1.3-1.3,2.2-2.8,2.8-4.5c0.6-1.7,0.9-3.6,0.9-5.6c0-1.7-0.2-3.4-0.7-5.1
			C336.4,111.3,335.5,109.7,334.3,108.4"/>
		<path id="XMLID_7_" class="st1" d="M471.2,116.4c0,2.1-0.5,3.7-1.6,4.9c-1.1,1.1-2.8,1.7-5.2,1.7h-8.2c-2.5,0-4.3-0.6-5.3-1.7
			c-1.1-1.1-1.6-2.7-1.6-4.9l0-31.4h-9.6l0,32c0,10.2,5.2,15.4,15.6,15.4h9.7h0c5.1,0,9-1.3,11.6-3.9c2.6-2.6,4-6.4,4-11.5l0-32
			h-9.3L471.2,116.4z"/>
		<path id="XMLID_6_" class="st1" d="M524,89.3c-1.3-1.3-2.9-2.4-4.8-3.2c-1.9-0.8-4.3-1.2-6.9-1.2l-24.3,0l0,9.5l24.6,0
			c1.9,0,3.4,0.5,4.3,1.6c0.9,1.1,1.4,2.3,1.4,3.9c0,0.7-0.1,1.4-0.3,2.1c-0.2,0.7-0.6,1.3-1,1.8c-0.4,0.5-1,0.9-1.7,1.2
			c-0.7,0.3-1.6,0.5-2.6,0.5l-16.6,0c-2.7,0-4.8,0.6-6,1.9c-1.3,1.3-1.9,3.3-1.9,6.1l0,18.9h9.5l0-17.3c0-0.4,0.1-0.5,0.4-0.5
			l14.3,0c2.8,0,5.2-0.5,7.1-1.4c2-0.9,3.6-2.1,4.8-3.5c1.2-1.4,2.2-3.1,2.7-4.9c0.5-1.8,0.8-3.6,0.8-5.4c0-1.9-0.3-3.7-0.9-5.5
			C526.2,92.2,525.2,90.6,524,89.3"/>
		<path id="XMLID_5_" class="st1" d="M574.9,113.1L574.9,113.1c-0.5-1.7-1.3-3.3-2.5-4.7s-2.9-2.5-5-3.3c-2.1-0.8-4.7-1.2-8-1.2
			h-10.8c-1.3,0-2.3-0.1-3.1-0.4c-0.7-0.3-1.4-0.6-1.8-1.1c-0.4-0.4-0.7-0.9-0.9-1.5c-0.2-0.6-0.3-1.2-0.3-1.8
			c0-1.4,0.4-2.5,1.2-3.4c0.8-0.9,2.2-1.3,4-1.3h24.3v-9.5h-24c-2.6,0-4.9,0.3-6.8,1c-1.9,0.7-3.5,1.7-4.7,2.9
			c-1.2,1.3-2.1,2.8-2.7,4.5c-0.5,1.7-0.8,3.5-0.8,5.5c0,1.7,0.2,3.3,0.7,5c0.5,1.7,1.3,3.2,2.5,4.6c1.2,1.4,2.8,2.5,4.9,3.3
			c2,0.8,4.7,1.2,7.8,1.2h10.7c1.3,0,2.4,0.2,3.3,0.4c0.8,0.3,1.5,0.7,1.9,1.1c0.5,0.4,0.8,1,1,1.5c0.2,0.6,0.3,1.3,0.3,1.9
			c0,1.5-0.4,2.7-1.3,3.6c-0.9,0.9-2.3,1.4-4.3,1.4l-26.6,0v9.5l26.3,0c2.7,0,5.1-0.4,7-1.1c1.9-0.7,3.5-1.7,4.8-3
			c1.3-1.3,2.2-2.8,2.8-4.5c0.6-1.7,0.9-3.6,0.9-5.6C575.6,116.5,575.4,114.8,574.9,113.1"/>
		<path id="XMLID_4_" class="st1" d="M352,85.9c-2,0.7-3.7,1.6-5,2.8c-1.3,1.2-2.3,2.6-2.9,4.3c-0.5,1.3-0.8,2.8-0.9,4.3l0,22l0,0.7
			h0c0.1,1.5,0.4,3,0.9,4.3c0.6,1.6,1.6,3.1,2.9,4.3c1.3,1.2,3,2.1,5,2.8c2,0.7,4.4,1,7.2,1h24v-9.5h-24c-2.2,0-4-0.5-5-1.4
			c-1-0.9-1.5-2.1-1.5-3.7v-4.9l23.5,0v-8.7l-23.5,0v-4.7c0-1.6,0.5-2.8,1.5-3.7c1-0.9,2.7-1.3,5-1.3h24v-9.5h-24
			C356.4,84.9,354,85.3,352,85.9"/>
		<path id="XMLID_3_" class="st1" d="M425.9,104.3H413v8.7l10.2,0c0.1,0,0.2,0.1,0.2,0.2v3.9c0,1.7-0.4,3.1-1.3,4.2
			c-0.8,1-2.3,1.5-4.4,1.5h-7.6c-4.3,0-7.4-1.1-9.2-3.3c-1.9-2.2-2.8-5.9-2.8-10.9c0-5.1,1-8.8,2.9-11c1.9-2.2,5-3.3,9.2-3.3h18.6
			l0-9.5h-18.6c-6.9,0-12.3,2-15.9,5.9c-3.7,3.9-5.5,9.9-5.5,17.8c0,7.9,1.9,13.8,5.5,17.8c3.7,3.9,9,5.9,15.9,5.9h7.1
			c2.7,0,5-0.4,6.8-1.2c1.9-0.8,3.5-1.9,4.7-3.2c1.2-1.4,2.1-3,2.7-4.8c0.5-1.6,0.8-3.3,0.8-5.2l0-7.2
			C432.2,107.1,429.3,104.3,425.9,104.3"/>
		<g id="XMLID_41_">
			<path id="XMLID_13_" class="st1" d="M88.4,66.7c34.8,0,64.9,20.3,79,49.7c0.3-2.5,0.5-5.1,0.5-7.7c0-32.8-27.4-59.4-59.3-59.4
				c-17.6,0-34,8.2-45,21C71.5,68,79.8,66.7,88.4,66.7"/>
			<path id="XMLID_14_" class="st1" d="M138.7,88.5c3.9,5.8,6.2,12.7,6.2,20.1c0,20.1-16.8,36.3-36.3,36.3
				c-19.5,0-36.4-16.2-36.4-36.3c0-15.4,9.9-28.5,23.3-33.8c-1,0-2.1-0.1-3.1-0.1c-13.5,0-26.2,3.2-37.5,8.8
				c-3.7,7.6-5.7,16.2-5.7,25.2c0,32.8,27.6,59.3,59.4,59.3c28.3,0,53.1-20.9,58.3-48.6C160.2,106.9,150.5,96.3,138.7,88.5"/>
		</g>
		<g id="XMLID_12_">
			<path id="XMLID_100_" class="st2" d="M525.1,175.2c-0.8,0-1.4-0.2-1.8-0.6c-0.5-0.4-0.7-1-0.7-1.7c0-0.7,0.2-1.3,0.7-1.7
				c0.5-0.4,1.1-0.6,1.9-0.6c0.8,0,1.4,0.2,1.9,0.7c0.5,0.4,0.7,1,0.7,1.7c0,0.7-0.2,1.3-0.7,1.7C526.5,175,525.9,175.2,525.1,175.2
				 M507.3,165.6h6.4l-3.2-9.8L507.3,165.6z M516.8,175l-2-6.2h-8.4l-2,6.2h-3.8l7.3-21.6h5.6l7.3,21.6H516.8z M496,175.2
				c-0.8,0-1.4-0.2-1.8-0.6c-0.5-0.4-0.7-1-0.7-1.7c0-0.7,0.2-1.3,0.7-1.7c0.5-0.4,1.1-0.6,1.9-0.6c0.8,0,1.4,0.2,1.9,0.7
				c0.5,0.4,0.7,1,0.7,1.7c0,0.7-0.2,1.3-0.7,1.7C497.4,175,496.8,175.2,496,175.2z M483,175.2c-1,0-2-0.1-3-0.2
				c-1-0.2-1.9-0.4-2.8-0.7v-3.2c0.9,0.3,1.8,0.5,2.9,0.7c1,0.2,2,0.2,2.9,0.2c1.5,0,2.7-0.3,3.4-0.8c0.7-0.5,1.1-1.3,1.1-2.3
				c0-0.6-0.1-1-0.3-1.4c-0.2-0.4-0.6-0.7-1.1-1c-0.5-0.3-1.2-0.5-2.1-0.8l-1.5-0.4c-1.9-0.5-3.3-1.2-4.3-2.2
				c-0.9-1-1.4-2.3-1.4-3.9c0-2,0.7-3.6,2.2-4.7c1.4-1.1,3.6-1.7,6.4-1.7c0.9,0,1.8,0.1,2.7,0.2c0.9,0.1,1.6,0.3,2.3,0.5v3.2
				c-0.7-0.2-1.5-0.4-2.3-0.5c-0.8-0.1-1.7-0.2-2.5-0.2c-1.7,0-2.9,0.3-3.7,0.8c-0.8,0.5-1.2,1.3-1.2,2.2c0,0.5,0.1,1,0.3,1.3
				c0.2,0.4,0.5,0.7,1,0.9c0.5,0.3,1.1,0.5,1.9,0.7l1.5,0.4c2.1,0.5,3.6,1.3,4.6,2.3c1,1,1.5,2.3,1.5,3.9c0,1.3-0.3,2.5-1,3.5
				c-0.7,1-1.6,1.7-2.9,2.2C486.2,175,484.7,175.2,483,175.2z M459.3,175.2c-1,0-2-0.1-3-0.2c-1-0.2-1.9-0.4-2.8-0.7v-3.2
				c0.9,0.3,1.8,0.5,2.9,0.7c1,0.2,2,0.2,2.9,0.2c1.5,0,2.7-0.3,3.4-0.8c0.7-0.5,1.1-1.3,1.1-2.3c0-0.6-0.1-1-0.3-1.4
				c-0.2-0.4-0.6-0.7-1.1-1c-0.5-0.3-1.2-0.5-2.1-0.8l-1.5-0.4c-1.9-0.5-3.3-1.2-4.3-2.2c-0.9-1-1.4-2.3-1.4-3.9
				c0-2,0.7-3.6,2.2-4.7c1.4-1.1,3.6-1.7,6.4-1.7c0.9,0,1.8,0.1,2.7,0.2c0.9,0.1,1.6,0.3,2.3,0.5v3.2c-0.7-0.2-1.5-0.4-2.3-0.5
				c-0.8-0.1-1.7-0.2-2.5-0.2c-1.7,0-2.9,0.3-3.7,0.8c-0.8,0.5-1.2,1.3-1.2,2.2c0,0.5,0.1,1,0.3,1.3c0.2,0.4,0.5,0.7,1,0.9
				c0.5,0.3,1.1,0.5,1.9,0.7l1.5,0.4c2.1,0.5,3.6,1.3,4.6,2.3c1,1,1.5,2.3,1.5,3.9c0,1.3-0.3,2.5-1,3.5c-0.7,1-1.6,1.7-2.9,2.2
				C462.6,175,461.1,175.2,459.3,175.2z M440.3,171.8h10.8v3.1h-14.7v-21.6H451v3.1h-10.7v5.8h9.2v3.1h-9.2V171.8z M425.6,151
				c-0.4,0-0.8,0-1.2-0.1c-0.4-0.1-0.9-0.2-1.4-0.4c-0.5-0.2-0.9-0.3-1.2-0.4c-0.3-0.1-0.7-0.1-1-0.1c-0.6,0-1,0.1-1.5,0.2
				c-0.4,0.2-0.9,0.4-1.3,0.8v-2.3c0.4-0.4,0.8-0.6,1.2-0.8c0.5-0.2,1-0.2,1.6-0.2c0.4,0,0.9,0,1.2,0.2c0.4,0.1,0.9,0.3,1.4,0.4
				c0.5,0.2,0.9,0.3,1.3,0.4c0.3,0.1,0.6,0.1,1,0.1c0.6,0,1-0.1,1.5-0.2c0.4-0.2,0.9-0.4,1.3-0.8v2.3c-0.4,0.4-0.8,0.6-1.2,0.8
				C426.8,151,426.2,151,425.6,151z M423.2,172.1c1.9,0,3.3-0.6,4.3-1.9c1-1.2,1.5-3.2,1.5-6c0-2.8-0.5-4.8-1.5-6.1
				c-1-1.3-2.4-1.9-4.3-1.9c-1.9,0-3.3,0.6-4.3,1.9c-1,1.2-1.5,3.2-1.5,6c0,2.8,0.5,4.9,1.5,6.1
				C419.9,171.4,421.3,172.1,423.2,172.1z M423.2,175.2c-2,0-3.7-0.4-5.2-1.2c-1.5-0.8-2.6-2-3.4-3.7c-0.8-1.7-1.2-3.7-1.2-6.2
				c0-2.5,0.4-4.6,1.2-6.2c0.8-1.7,1.9-2.9,3.4-3.7c1.5-0.8,3.2-1.2,5.2-1.2c2,0,3.7,0.4,5.2,1.2c1.5,0.8,2.6,2,3.4,3.7
				c0.8,1.7,1.2,3.7,1.2,6.2c0,2.5-0.4,4.5-1.2,6.2c-0.8,1.7-1.9,2.9-3.4,3.7C426.9,174.8,425.2,175.2,423.2,175.2z M407.5,156.3
				c-1.6,0-3,0.3-4,0.8c-1.1,0.5-1.8,1.4-2.4,2.5c-0.5,1.1-0.8,2.7-0.8,4.5c0,1.9,0.3,3.4,0.8,4.6c0.5,1.2,1.3,2,2.3,2.5
				c1,0.5,2.3,0.8,3.9,0.8c1.5,0,3-0.2,4.5-0.7v3.2c-0.7,0.2-1.5,0.4-2.3,0.5c-0.8,0.1-1.7,0.2-2.5,0.2h-0.5v1.1
				c0.9,0.1,1.5,0.4,2,0.8c0.5,0.4,0.7,1,0.7,1.7c0,0.8-0.3,1.4-0.9,1.9c-0.6,0.4-1.6,0.7-2.8,0.7c-1,0-2-0.2-2.9-0.5v-1.6
				c0.9,0.3,1.8,0.5,2.7,0.5c0.6,0,1-0.1,1.4-0.3c0.3-0.2,0.5-0.5,0.5-0.8c0-0.8-0.6-1.1-1.8-1.1h-0.7v-2.4
				c-2.7-0.4-4.8-1.5-6.2-3.2c-1.4-1.8-2.1-4.3-2.1-7.7c0-3.7,0.9-6.5,2.8-8.4c1.9-1.9,4.6-2.8,8.2-2.8c1.6,0,3.1,0.2,4.6,0.6v3.2
				C410.5,156.5,409,156.3,407.5,156.3z M381.8,165.6h6.4l-3.2-9.8L381.8,165.6z M391.3,175l-2-6.2h-8.4l-2,6.2h-3.8l7.3-21.6h5.6
				l7.3,21.6H391.3z M366.1,165.4c1.9,0,3.3-0.4,4.1-1.1c0.9-0.7,1.3-1.9,1.3-3.5c0-1.6-0.4-2.8-1.3-3.6c-0.8-0.8-2.2-1.1-3.9-1.1
				c-0.9,0-1.8,0.1-2.6,0.2v9C364.3,165.4,365.1,165.4,366.1,165.4z M359.8,153.7c2.1-0.4,4.2-0.6,6.2-0.6c3.1,0,5.5,0.6,7,1.9
				c1.5,1.2,2.3,3.2,2.3,5.8c0,2.5-0.8,4.4-2.3,5.7c-1.5,1.3-3.9,1.9-6.9,1.9c-0.5,0-1.3,0-2.4-0.1v6.7h-3.9V153.7z M351.6,175
				v-21.6h3.9V175H351.6z M343.9,175.2c-3.5,0-6.2-0.9-8-2.7c-1.8-1.8-2.8-4.6-2.8-8.4c0-3.7,0.9-6.5,2.8-8.4
				c1.9-1.9,4.6-2.8,8.2-2.8c1.6,0,3.1,0.2,4.6,0.6v3.2c-1.4-0.4-2.9-0.5-4.4-0.5c-1.6,0-3,0.3-4,0.8c-1.1,0.5-1.8,1.4-2.4,2.5
				c-0.5,1.1-0.8,2.7-0.8,4.5c0,1.9,0.3,3.4,0.8,4.6c0.5,1.2,1.3,2,2.3,2.5c1,0.5,2.3,0.8,3.9,0.8c1.5,0,3-0.2,4.5-0.7v3.2
				c-0.7,0.2-1.5,0.4-2.3,0.5C345.6,175.2,344.8,175.2,343.9,175.2z M325.8,175v-21.6h3.9V175H325.8z M312.6,175v-18.4h-7v-3.3h17.8
				v3.3h-7V175H312.6z M293.3,163.6c0.9,0.1,1.8,0.1,2.6,0.1c1.8,0,3.2-0.3,4-0.9c0.9-0.6,1.3-1.6,1.3-2.9c0-1.3-0.4-2.3-1.2-2.9
				c-0.8-0.6-2.1-0.9-3.8-0.9c-1,0-1.9,0.1-2.9,0.3V163.6z M302.4,175l-6-8.3c-0.1,0-0.3,0-0.6,0c-0.6,0-1.4,0-2.5-0.1v8.4h-3.8
				v-21.2c2.1-0.5,4.3-0.7,6.4-0.7c3,0,5.3,0.5,6.8,1.7c1.5,1.1,2.2,2.8,2.2,5.1c0,1.6-0.4,2.9-1.2,3.9c-0.8,1.1-2,1.8-3.5,2.3
				l6.4,8.9H302.4z M273.7,165.6h6.4l-3.2-9.8L273.7,165.6z M283.2,175l-2-6.2h-8.5l-2,6.2h-3.8l7.3-21.6h5.6l7.3,21.6H283.2z
				 M258,165.4c1.9,0,3.3-0.4,4.1-1.1c0.9-0.7,1.3-1.9,1.3-3.5c0-1.6-0.4-2.8-1.3-3.6c-0.8-0.8-2.2-1.1-3.9-1.1
				c-0.9,0-1.8,0.1-2.6,0.2v9C256.3,165.4,257.1,165.4,258,165.4z M251.7,153.7c2.1-0.4,4.2-0.6,6.2-0.6c3.1,0,5.5,0.6,7,1.9
				c1.5,1.2,2.3,3.2,2.3,5.8c0,2.5-0.8,4.4-2.3,5.7c-1.5,1.3-3.9,1.9-6.9,1.9c-0.5,0-1.3,0-2.4-0.1v6.7h-3.9V153.7z"/>
		</g>
		<g id="XMLID_166_">
			<path id="XMLID_168_" class="st1" d="M88,66.3c35,0,65.2,20.4,79.4,49.9c0.3-2.5,0.5-5.1,0.5-7.8c0-32.9-27.6-59.7-59.5-59.7
				c-17.7,0-34.1,8.2-45.2,21.1C71.1,67.5,79.4,66.3,88,66.3"/>
			<path id="XMLID_167_" class="st1" d="M138.6,88.2c3.9,5.8,6.2,12.7,6.2,20.2c0,20.2-16.9,36.4-36.4,36.4
				c-19.6,0-36.5-16.3-36.5-36.4c0-15.4,10-28.6,23.4-34c-1,0-2.1-0.1-3.1-0.1c-13.5,0-26.3,3.2-37.7,8.8
				c-3.7,7.7-5.8,16.2-5.8,25.3c0,33,27.7,59.5,59.7,59.5c28.4,0,53.4-21,58.5-48.9C160.2,106.6,150.4,95.9,138.6,88.2"/>
		</g>
	</g>
</g>
</svg>
