<?xml version="1.0" encoding="UTF-8"?> <!-- Generator: Adobe Illustrator 19.0.0, SVG Export Plug-In . SVG Version: 6.00 Build 0) --> <svg xmlns="http://www.w3.org/2000/svg" xmlns:xlink="http://www.w3.org/1999/xlink" id="Camada_1" x="0px" y="0px" viewBox="0 0 478.8 588.9" style="enable-background:new 0 0 478.8 588.9;" xml:space="preserve"> <style type="text/css"> .st0{fill:#132C85;} .st1{fill:#FFEE00;} .st2{fill:#FFFFFF;} </style> <g> <path class="st0" d="M430.2,588.9H48.6C21.8,588.9,0,567.6,0,541.4V47.6C0,21.3,21.8,0,48.6,0h381.5c26.8,0,48.6,21.3,48.6,47.6 v493.8C478.8,567.6,457,588.9,430.2,588.9"></path> <path class="st1" d="M185.5,128.3c92.8,0,173,54.1,210.7,132.5c0.9-6.8,1.4-13.6,1.4-20.7c0-87.5-73.2-158.5-158.1-158.5 c-47,0-90.6,21.8-120.1,56.1C140.5,131.7,162.6,128.3,185.5,128.3"></path> <path class="st1" d="M319.7,186.5c10.4,15.4,16.5,33.8,16.5,53.6c0,53.5-44.8,96.7-96.7,96.7c-52,0-97-43.2-97-96.7 c0-41,26.4-76,62.2-90.2c-2.7-0.1-5.5-0.2-8.2-0.2c-35.9,0-69.9,8.4-100,23.4c-9.8,20.4-15.3,43.1-15.3,67.1 c0,87.5,73.6,158.1,158.5,158.1c75.5,0,141.7-55.8,155.4-129.7C377.1,235.4,351.2,207.1,319.7,186.5"></path> <path class="st1" d="M131.3,430.4h-4.1h0c-4.5,0-8,1.3-10.5,3.9c-2.4,2.6-3.6,6.5-3.6,11.7c0,5.2,1.2,9.1,3.6,11.7 c2.4,2.6,6,3.9,10.5,3.9h4.1c4.5,0,8.1-1.3,10.5-3.9c2.4-2.6,3.6-6.5,3.6-11.7c0-5.2-1.2-9.2-3.6-11.7 C139.4,431.7,135.9,430.4,131.3,430.4 M139.2,446c0,3.3-0.6,5.8-1.9,7.2c-1.2,1.4-3.2,2.1-6,2.1h-4.1c-2.8,0-4.8-0.7-6.1-2.1 c-1.2-1.4-1.9-3.8-1.9-7.2c0-3.4,0.6-5.8,1.9-7.3c1.2-1.4,3.3-2.2,6-2.2h4.1c2.8,0,4.8,0.7,6,2.2 C138.6,440.2,139.2,442.7,139.2,446"></path> <path class="st1" d="M173.8,448c0.8-0.7,1.5-1.4,2.1-2.3c0.5-0.8,0.9-1.8,1.2-2.8c0.2-1,0.4-2,0.4-3c0-1.2-0.2-2.5-0.6-3.6 c-0.4-1.2-1-2.2-1.9-3.1c-0.8-0.9-1.9-1.6-3.2-2.1c-1.3-0.5-2.8-0.8-4.6-0.8h-16.9v6.2h17c1.3,0,2.3,0.3,2.8,1 c0.6,0.7,0.9,1.5,0.9,2.5c0,0.5-0.1,1-0.2,1.4c-0.1,0.4-0.4,0.8-0.7,1.2c-0.3,0.3-0.7,0.6-1.1,0.8c-0.5,0.2-1.1,0.3-1.7,0.3h-11.8 c-1.8,0-3.1,0.4-4,1.3c-0.8,0.8-1.3,2.2-1.3,4v12.4h6.2v-11.4c0-0.2,0-0.3,0.3-0.3h7.6l6.9,11.7l6.9,0l-7.1-12.3 C172.2,449,173.1,448.5,173.8,448"></path> <path class="st1" d="M206.9,445.8c-0.8-0.9-1.9-1.6-3.3-2.2c-1.4-0.5-3.1-0.8-5.2-0.8l-7.1,0c-0.8,0-1.5-0.1-2-0.3 c-0.5-0.2-0.9-0.4-1.2-0.7c-0.3-0.3-0.5-0.6-0.6-1c-0.1-0.4-0.2-0.8-0.2-1.2c0-0.9,0.3-1.7,0.8-2.3c0.5-0.6,1.4-0.9,2.7-0.9l16,0 v-6.2l-15.8,0c-1.7,0-3.2,0.2-4.5,0.7c-1.3,0.4-2.3,1.1-3.1,1.9c-0.8,0.8-1.4,1.8-1.8,2.9c-0.4,1.1-0.5,2.3-0.5,3.6 c0,1.1,0.1,2.2,0.4,3.3c0.3,1.1,0.9,2.1,1.6,3c0.8,0.9,1.9,1.6,3.2,2.1c1.3,0.5,3.1,0.8,5.1,0.8l7,0c0.9,0,1.6,0.1,2.2,0.3 c0.5,0.2,1,0.4,1.3,0.7c0.3,0.3,0.5,0.6,0.6,1c0.1,0.4,0.2,0.8,0.2,1.3c0,1-0.3,1.8-0.9,2.4c-0.6,0.6-1.5,0.9-2.8,0.9l-17.5,0v6.2 l17.3,0c1.8,0,3.3-0.2,4.6-0.7c1.3-0.5,2.3-1.1,3.1-2c0.8-0.8,1.4-1.8,1.8-3c0.4-1.1,0.6-2.4,0.6-3.7c0-1.1-0.1-2.2-0.4-3.3 C208.2,447.8,207.7,446.7,206.9,445.8"></path> <path class="st1" d="M296.9,451.1c0,1.4-0.4,2.5-1.1,3.2c-0.7,0.7-1.9,1.1-3.4,1.1H287c-1.6,0-2.8-0.4-3.5-1.1 c-0.7-0.7-1.1-1.8-1.1-3.2l0-20.7h-6.3l0,21.1c0,6.7,3.4,10.1,10.2,10.1h6.4h0c3.4,0,5.9-0.9,7.7-2.5c1.7-1.7,2.6-4.2,2.6-7.5 l0-21.1h-6.1L296.9,451.1z"></path> <path class="st1" d="M331.7,433.3c-0.8-0.9-1.9-1.6-3.2-2.1c-1.3-0.5-2.8-0.8-4.6-0.8l-16,0l0,6.2l16.2,0c1.3,0,2.2,0.3,2.8,1 c0.6,0.7,0.9,1.5,0.9,2.5c0,0.5-0.1,0.9-0.2,1.4c-0.1,0.4-0.4,0.8-0.6,1.2c-0.3,0.3-0.7,0.6-1.1,0.8c-0.5,0.2-1.1,0.3-1.7,0.3 l-10.9,0c-1.8,0-3.1,0.4-4,1.3c-0.8,0.8-1.3,2.2-1.3,4l0,12.4h6.2l0-11.4c0-0.2,0-0.3,0.3-0.3l9.4,0c1.8,0,3.4-0.3,4.7-0.9 c1.3-0.6,2.4-1.4,3.2-2.3c0.8-0.9,1.4-2,1.8-3.2c0.4-1.2,0.5-2.4,0.5-3.5c0-1.2-0.2-2.4-0.6-3.6 C333.1,435.2,332.5,434.1,331.7,433.3"></path> <path class="st1" d="M365.2,448.9L365.2,448.9c-0.3-1.1-0.9-2.2-1.7-3.1c-0.8-0.9-1.9-1.6-3.3-2.2c-1.4-0.5-3.1-0.8-5.2-0.8h-7.1 c-0.8,0-1.5-0.1-2-0.3c-0.5-0.2-0.9-0.4-1.2-0.7c-0.3-0.3-0.5-0.6-0.6-1c-0.1-0.4-0.2-0.8-0.2-1.2c0-0.9,0.3-1.7,0.8-2.3 c0.5-0.6,1.4-0.9,2.7-0.9h16v-6.2h-15.8c-1.7,0-3.2,0.2-4.5,0.7c-1.3,0.4-2.3,1.1-3.1,1.9c-0.8,0.8-1.4,1.8-1.8,2.9 c-0.4,1.1-0.5,2.3-0.5,3.6c0,1.1,0.1,2.2,0.4,3.3c0.3,1.1,0.8,2.1,1.6,3c0.8,0.9,1.9,1.6,3.2,2.1c1.3,0.5,3.1,0.8,5.1,0.8h7 c0.9,0,1.6,0.1,2.2,0.3c0.5,0.2,1,0.4,1.3,0.7c0.3,0.3,0.5,0.6,0.6,1c0.1,0.4,0.2,0.8,0.2,1.3c0,1-0.3,1.8-0.9,2.4 c-0.6,0.6-1.5,0.9-2.8,0.9l-17.5,0v6.2l17.3,0c1.8,0,3.3-0.2,4.6-0.7c1.3-0.5,2.3-1.1,3.1-2c0.8-0.8,1.4-1.8,1.8-3 c0.4-1.1,0.6-2.4,0.6-3.7C365.6,451.2,365.4,450,365.2,448.9"></path> <path class="st1" d="M218.5,431.1c-1.3,0.4-2.4,1.1-3.3,1.8c-0.9,0.8-1.5,1.7-1.9,2.8c-0.3,0.9-0.5,1.8-0.6,2.8l0,14.5l0,0.5h0 c0.1,1,0.2,2,0.6,2.8c0.4,1.1,1,2,1.9,2.8c0.9,0.8,2,1.4,3.3,1.8c1.3,0.4,2.9,0.7,4.7,0.7h15.8v-6.2h-15.8c-1.5,0-2.6-0.3-3.3-0.9 c-0.6-0.6-1-1.4-1-2.5v-3.2l15.5,0v-5.7l-15.5,0V440c0-1.1,0.3-1.9,1-2.5c0.6-0.6,1.8-0.9,3.3-0.9h15.8v-6.2h-15.8 C221.4,430.4,219.8,430.6,218.5,431.1"></path> <path class="st1" d="M267.1,443.1h-8.5v5.7l6.7,0c0.1,0,0.1,0.1,0.1,0.1v2.6c0,1.1-0.3,2.1-0.9,2.8c-0.6,0.7-1.5,1-2.9,1h-5 c-2.8,0-4.8-0.7-6.1-2.1c-1.2-1.4-1.9-3.9-1.9-7.2c0-3.4,0.6-5.8,1.9-7.2c1.2-1.4,3.3-2.1,6-2.1H269l0-6.2h-12.3 c-4.5,0-8.1,1.3-10.5,3.9c-2.4,2.6-3.6,6.5-3.6,11.7c0,5.2,1.2,9.1,3.6,11.7c2.4,2.6,5.9,3.9,10.5,3.9h4.7c1.8,0,3.3-0.3,4.5-0.8 c1.2-0.5,2.3-1.2,3.1-2.1c0.8-0.9,1.4-2,1.8-3.2c0.3-1.1,0.5-2.2,0.5-3.5l0-4.7C271.3,445,269.4,443.1,267.1,443.1"></path> <path class="st2" d="M114.9,489.1c1.8-0.4,3.6-0.5,5.4-0.5c2.7,0,4.8,0.5,6.1,1.6c1.4,1.1,2,2.8,2,5.1c0,2.2-0.7,3.9-2,5 c-1.4,1.1-3.4,1.7-6.1,1.7c-0.4,0-1.1,0-2.1-0.1v5.8h-3.4V489.1z M124,498.4c0.8-0.6,1.1-1.7,1.1-3.1c0-1.4-0.4-2.5-1.1-3.1 c-0.7-0.7-1.9-1-3.4-1c-0.8,0-1.6,0.1-2.3,0.2v7.9c0.6,0.1,1.3,0.1,2.1,0.1C122.1,499.4,123.3,499.1,124,498.4"></path> <path class="st2" d="M143,507.8l-1.8-5.5h-7.4l-1.8,5.5h-3.4l6.4-19h5l6.4,19H143z M134.7,499.6h5.6l-2.8-8.6L134.7,499.6z"></path> <path class="st2" d="M160.4,507.8l-5.2-7.3c-0.1,0-0.3,0-0.5,0c-0.5,0-1.2,0-2.2-0.1v7.4H149v-18.6c1.9-0.4,3.7-0.6,5.6-0.6 c2.7,0,4.6,0.5,6,1.4c1.3,1,2,2.5,2,4.5c0,1.4-0.3,2.5-1,3.5c-0.7,0.9-1.7,1.6-3.1,2l5.7,7.8H160.4z M152.4,497.8 c0.8,0.1,1.6,0.1,2.3,0.1c1.6,0,2.8-0.3,3.5-0.8c0.8-0.5,1.1-1.4,1.1-2.6c0-1.2-0.4-2-1.1-2.6c-0.7-0.5-1.8-0.8-3.3-0.8 c-0.9,0-1.7,0.1-2.6,0.2V497.8z"></path> <polygon class="st2" points="169.8,507.8 169.8,491.6 163.7,491.6 163.7,488.8 179.3,488.8 179.3,491.6 173.2,491.6 173.2,507.8 "></polygon> <rect x="181.9" y="488.8" class="st2" width="3.4" height="19"></rect> <path class="st2" d="M191.3,505.7c-1.6-1.6-2.4-4-2.4-7.4c0-3.3,0.8-5.7,2.5-7.3c1.7-1.6,4-2.4,7.2-2.4c1.4,0,2.8,0.2,4.1,0.5v2.8 c-1.2-0.3-2.5-0.5-3.8-0.5c-1.4,0-2.6,0.2-3.5,0.7c-0.9,0.5-1.6,1.2-2.1,2.2c-0.5,1-0.7,2.3-0.7,4c0,1.7,0.2,3,0.7,4 c0.5,1,1.1,1.7,2,2.2c0.9,0.4,2,0.7,3.4,0.7c1.3,0,2.6-0.2,4-0.6v2.8c-0.6,0.2-1.3,0.4-2,0.5c-0.7,0.1-1.5,0.2-2.2,0.2 C195.3,508,192.9,507.2,191.3,505.7"></path> <rect x="205.6" y="488.8" class="st2" width="3.4" height="19"></rect> <path class="st2" d="M213.2,489.1c1.8-0.4,3.6-0.5,5.4-0.5c2.7,0,4.8,0.5,6.1,1.6c1.4,1.1,2,2.8,2,5.1c0,2.2-0.7,3.9-2,5 c-1.4,1.1-3.4,1.7-6.1,1.7c-0.4,0-1.1,0-2.1-0.1v5.8h-3.4V489.1z M222.4,498.4c0.8-0.6,1.1-1.7,1.1-3.1c0-1.4-0.4-2.5-1.1-3.1 c-0.7-0.7-1.9-1-3.4-1c-0.8,0-1.6,0.1-2.3,0.2v7.9c0.6,0.1,1.3,0.1,2.1,0.1C220.4,499.4,221.6,499.1,222.4,498.4"></path> <path class="st2" d="M241.4,507.8l-1.8-5.5h-7.4l-1.8,5.5H227l6.4-19h5l6.4,19H241.4z M233.1,499.6h5.6l-2.8-8.6L233.1,499.6z"></path> <path class="st2" d="M252.6,492.1c-0.9,0.5-1.6,1.2-2.1,2.2c-0.5,1-0.7,2.3-0.7,4c0,1.7,0.2,3,0.7,4c0.5,1,1.1,1.7,2,2.2 c0.9,0.4,2,0.7,3.4,0.7c1.3,0,2.6-0.2,4-0.6v2.8c-0.6,0.2-1.3,0.4-2,0.5c-0.7,0.1-1.5,0.2-2.2,0.2h-0.5v0.9 c0.8,0.1,1.3,0.3,1.7,0.7c0.4,0.4,0.6,0.9,0.6,1.5c0,0.7-0.3,1.3-0.8,1.6c-0.6,0.4-1.4,0.6-2.4,0.6c-0.9,0-1.8-0.1-2.5-0.4v-1.4 c0.8,0.3,1.6,0.4,2.4,0.4c0.5,0,0.9-0.1,1.2-0.2c0.3-0.2,0.4-0.4,0.4-0.7c0-0.7-0.5-1-1.6-1h-0.6v-2.1c-2.4-0.3-4.2-1.3-5.4-2.8 c-1.2-1.5-1.9-3.8-1.9-6.7c0-3.3,0.8-5.7,2.5-7.3c1.7-1.6,4-2.4,7.2-2.4c1.4,0,2.8,0.2,4.1,0.5v2.8c-1.2-0.3-2.5-0.5-3.8-0.5 C254.7,491.4,253.6,491.6,252.6,492.1"></path> <path class="st2" d="M265.8,506.9c-1.3-0.7-2.3-1.8-3-3.2c-0.7-1.5-1-3.3-1-5.4s0.3-4,1-5.4c0.7-1.5,1.7-2.5,3-3.2 c1.3-0.7,2.8-1.1,4.5-1.1c1.8,0,3.3,0.4,4.6,1.1c1.3,0.7,2.3,1.8,3,3.2c0.7,1.4,1,3.3,1,5.4c0,2.2-0.4,4-1,5.4 c-0.7,1.5-1.7,2.5-3,3.2c-1.3,0.7-2.8,1.1-4.5,1.1C268.6,508,267.1,507.6,265.8,506.9 M274.2,503.6c0.9-1.1,1.3-2.8,1.3-5.2 c0-2.5-0.4-4.2-1.3-5.4c-0.9-1.1-2.1-1.7-3.7-1.7c-1.6,0-2.9,0.5-3.7,1.6c-0.9,1.1-1.3,2.8-1.3,5.2c0,2.5,0.4,4.3,1.3,5.4 c0.9,1.1,2.1,1.7,3.7,1.7C272,505.2,273.3,504.7,274.2,503.6 M271.4,486.6c-0.3-0.1-0.7-0.2-1.2-0.4c-0.5-0.2-0.8-0.3-1.1-0.4 c-0.3-0.1-0.6-0.1-0.9-0.1c-0.5,0-0.9,0.1-1.3,0.2c-0.4,0.1-0.8,0.4-1.1,0.7v-2c0.3-0.3,0.7-0.5,1.1-0.7c0.4-0.1,0.9-0.2,1.4-0.2 c0.4,0,0.7,0,1.1,0.1c0.3,0.1,0.8,0.2,1.2,0.4c0.5,0.2,0.8,0.3,1.1,0.4c0.3,0.1,0.6,0.1,0.9,0.1c0.5,0,0.9-0.1,1.3-0.2 c0.4-0.1,0.8-0.4,1.1-0.7v2c-0.3,0.3-0.7,0.5-1.1,0.7c-0.4,0.1-0.9,0.2-1.4,0.2C272.1,486.8,271.8,486.7,271.4,486.6"></path> <polygon class="st2" points="285.9,505 295.4,505 295.4,507.8 282.5,507.8 282.5,488.8 295.3,488.8 295.3,491.5 285.9,491.5 285.9,496.7 294,496.7 294,499.4 285.9,499.4 "></polygon> <path class="st2" d="M300.5,507.8c-0.9-0.1-1.7-0.3-2.5-0.6v-2.8c0.8,0.3,1.6,0.5,2.5,0.6c0.9,0.1,1.8,0.2,2.6,0.2 c1.3,0,2.3-0.2,2.9-0.7c0.6-0.5,0.9-1.1,0.9-2c0-0.5-0.1-0.9-0.3-1.2c-0.2-0.3-0.5-0.6-1-0.8c-0.4-0.2-1.1-0.5-1.9-0.7l-1.3-0.3 c-1.7-0.4-2.9-1.1-3.7-1.9c-0.8-0.9-1.2-2-1.2-3.4c0-1.8,0.6-3.1,1.9-4.1c1.3-1,3.1-1.5,5.6-1.5c0.8,0,1.6,0.1,2.3,0.2 c0.8,0.1,1.4,0.2,2,0.4v2.8c-0.6-0.2-1.3-0.3-2-0.4c-0.7-0.1-1.5-0.2-2.2-0.2c-1.5,0-2.6,0.2-3.2,0.7s-1,1.1-1,1.9 c0,0.5,0.1,0.9,0.3,1.2c0.2,0.3,0.5,0.6,0.9,0.8c0.4,0.2,1,0.4,1.7,0.6l1.3,0.3c1.8,0.5,3.2,1.1,4,2c0.9,0.9,1.3,2,1.3,3.4 c0,1.2-0.3,2.2-0.9,3.1c-0.6,0.9-1.4,1.5-2.5,2c-1.1,0.4-2.4,0.7-3.9,0.7C302.2,508,301.4,507.9,300.5,507.8"></path> <path class="st2" d="M322.3,507.8c-0.9-0.1-1.7-0.3-2.5-0.6v-2.8c0.8,0.3,1.6,0.5,2.5,0.6c0.9,0.1,1.8,0.2,2.6,0.2 c1.3,0,2.3-0.2,2.9-0.7c0.6-0.5,0.9-1.1,0.9-2c0-0.5-0.1-0.9-0.3-1.2c-0.2-0.3-0.5-0.6-1-0.8c-0.4-0.2-1.1-0.5-1.9-0.7l-1.3-0.3 c-1.7-0.4-2.9-1.1-3.7-1.9c-0.8-0.9-1.2-2-1.2-3.4c0-1.8,0.6-3.1,1.9-4.1c1.3-1,3.1-1.5,5.6-1.5c0.8,0,1.6,0.1,2.3,0.2 c0.8,0.1,1.4,0.2,2,0.4v2.8c-0.6-0.2-1.3-0.3-2-0.4c-0.7-0.1-1.5-0.2-2.2-0.2c-1.5,0-2.6,0.2-3.2,0.7c-0.7,0.5-1,1.1-1,1.9 c0,0.5,0.1,0.9,0.3,1.2c0.2,0.3,0.5,0.6,0.9,0.8c0.4,0.2,1,0.4,1.7,0.6l1.3,0.3c1.8,0.5,3.2,1.1,4,2c0.9,0.9,1.3,2,1.3,3.4 c0,1.2-0.3,2.2-0.9,3.1c-0.6,0.9-1.4,1.5-2.5,2c-1.1,0.4-2.4,0.7-3.9,0.7C324,508,323.1,507.9,322.3,507.8"></path> <path class="st2" d="M335.2,507.4c-0.4-0.4-0.6-0.9-0.6-1.5s0.2-1.2,0.6-1.5c0.4-0.4,0.9-0.6,1.6-0.6c0.7,0,1.2,0.2,1.6,0.6 c0.4,0.4,0.6,0.9,0.6,1.5c0,0.6-0.2,1.1-0.6,1.5c-0.4,0.4-0.9,0.6-1.6,0.6C336.1,507.9,335.6,507.8,335.2,507.4"></path> <path class="st2" d="M355.6,507.8l-1.8-5.5h-7.4l-1.8,5.5h-3.4l6.4-19h5l6.4,19H355.6z M347.2,499.6h5.6l-2.8-8.6L347.2,499.6z"></path> <path class="st2" d="M361.7,507.4c-0.4-0.4-0.6-0.9-0.6-1.5s0.2-1.2,0.6-1.5c0.4-0.4,0.9-0.6,1.6-0.6c0.7,0,1.2,0.2,1.6,0.6 c0.4,0.4,0.6,0.9,0.6,1.5c0,0.6-0.2,1.1-0.6,1.5c-0.4,0.4-0.9,0.6-1.6,0.6C362.7,507.9,362.1,507.8,361.7,507.4"></path> </g> </svg> 